<mxfile host="65bd71144e">
    <diagram id="HIP3nbAZw_EuaXWnEj3U" name="Page-1">
        <mxGraphModel dx="532" dy="431" grid="1" gridSize="10" guides="1" tooltips="1" connect="1" arrows="1" fold="1" page="1" pageScale="1" pageWidth="850" pageHeight="1100" math="0" shadow="0">
            <root>
                <mxCell id="0"/>
                <mxCell id="1" parent="0"/>
                <mxCell id="4" style="edgeStyle=orthogonalEdgeStyle;html=1;rounded=0;" parent="1" source="2" target="5" edge="1">
                    <mxGeometry relative="1" as="geometry">
                        <mxPoint x="280" y="150" as="targetPoint"/>
                    </mxGeometry>
                </mxCell>
                <mxCell id="2" value="&lt;font color=&quot;#cce5ff&quot;&gt;&lt;b&gt;Start&lt;/b&gt;&lt;/font&gt;" style="strokeWidth=2;html=1;shape=mxgraph.flowchart.terminator;whiteSpace=wrap;" parent="1" vertex="1">
                    <mxGeometry x="375" y="100" width="100" height="60" as="geometry"/>
                </mxCell>
                <mxCell id="3" value="&lt;b&gt;&lt;font style=&quot;font-size: 13px;&quot; color=&quot;#cce5ff&quot;&gt;Stop&lt;/font&gt;&lt;/b&gt;" style="strokeWidth=2;html=1;shape=mxgraph.flowchart.terminator;whiteSpace=wrap;" parent="1" vertex="1">
                    <mxGeometry x="100" y="330" width="100" height="60" as="geometry"/>
                </mxCell>
                <mxCell id="6" style="edgeStyle=none;html=1;" parent="1" source="5" edge="1">
                    <mxGeometry relative="1" as="geometry">
                        <mxPoint x="270" y="220" as="targetPoint"/>
                    </mxGeometry>
                </mxCell>
                <mxCell id="5" value="&lt;font color=&quot;#cce5ff&quot;&gt;&lt;b&gt;Get Fahrenheit&lt;/b&gt;&lt;/font&gt;" style="shape=parallelogram;html=1;strokeWidth=2;perimeter=parallelogramPerimeter;whiteSpace=wrap;rounded=1;arcSize=12;size=0.23;" parent="1" vertex="1">
                    <mxGeometry x="210" y="120" width="120" height="70" as="geometry"/>
                </mxCell>
                <mxCell id="8" style="edgeStyle=none;html=1;fontColor=#CCE5FF;" parent="1" edge="1">
                    <mxGeometry relative="1" as="geometry">
                        <mxPoint x="300" y="330" as="targetPoint"/>
                        <mxPoint x="300" y="270" as="sourcePoint"/>
                    </mxGeometry>
                </mxCell>
                <mxCell id="9" value="" style="rounded=1;whiteSpace=wrap;html=1;absoluteArcSize=1;arcSize=14;strokeWidth=2;labelBackgroundColor=none;fontColor=#CCE5FF;" parent="1" vertex="1">
                    <mxGeometry x="220" y="220" width="150" height="50" as="geometry"/>
                </mxCell>
                <mxCell id="10" value="&lt;font face=&quot;Arial, sans-serif&quot; color=&quot;#cce5ff&quot;&gt;&lt;span style=&quot;font-size: 16px;&quot;&gt;&lt;b&gt;Formula-&amp;nbsp;&lt;/b&gt;&lt;/span&gt;&lt;/font&gt;&lt;abbr style=&quot;color: rgb(204, 229, 255); font-variant-numeric: normal; font-variant-east-asian: normal; font-variant-alternates: normal; text-decoration-line: none; text-decoration-style: initial; font-family: Arial, sans-serif; font-size: 16px; font-weight: 700;&quot; title=&quot;degree Celsius&quot;&gt;°C&lt;/abbr&gt;&lt;span style=&quot;color: rgb(204, 229, 255); font-family: Arial, sans-serif; font-size: 16px; font-weight: 700;&quot;&gt;&amp;nbsp;= (&lt;/span&gt;&lt;abbr style=&quot;color: rgb(204, 229, 255); font-variant-numeric: normal; font-variant-east-asian: normal; font-variant-alternates: normal; text-decoration-line: none; text-decoration-style: initial; font-family: Arial, sans-serif; font-size: 16px; font-weight: 700;&quot; title=&quot;degree Fahrenheit&quot;&gt;°F&lt;/abbr&gt;&lt;span style=&quot;color: rgb(204, 229, 255); font-family: Arial, sans-serif; font-size: 16px; font-weight: 700;&quot;&gt;&amp;nbsp;- 32) ÷ 1.8&lt;/span&gt;" style="text;whiteSpace=wrap;html=1;" vertex="1" parent="1">
                    <mxGeometry x="250" y="220" width="80" height="40" as="geometry"/>
                </mxCell>
                <mxCell id="11" style="edgeStyle=none;html=1;exitX=1;exitY=0.5;exitDx=0;exitDy=0;entryX=1;entryY=0;entryDx=0;entryDy=0;" edge="1" parent="1" source="10" target="10">
                    <mxGeometry relative="1" as="geometry"/>
                </mxCell>
                <mxCell id="13" style="edgeStyle=none;html=1;fontFamily=Helvetica;fontColor=#CCE5FF;" edge="1" parent="1">
                    <mxGeometry relative="1" as="geometry">
                        <mxPoint x="200" y="361" as="targetPoint"/>
                        <mxPoint x="258.225" y="361" as="sourcePoint"/>
                    </mxGeometry>
                </mxCell>
                <mxCell id="12" value="&lt;font color=&quot;#cce5ff&quot;&gt;&lt;b style=&quot;&quot;&gt;Show Celsius&lt;/b&gt;&lt;/font&gt;" style="shape=parallelogram;html=1;strokeWidth=2;perimeter=parallelogramPerimeter;whiteSpace=wrap;rounded=1;arcSize=12;size=0.23;" vertex="1" parent="1">
                    <mxGeometry x="245" y="330" width="115" height="60" as="geometry"/>
                </mxCell>
            </root>
        </mxGraphModel>
    </diagram>
</mxfile>